<svg width="56" height="56" viewBox="0 0 56 56" fill="none" xmlns="http://www.w3.org/2000/svg">
<g clip-path="url(#clip0_4_37)">
<path d="M28 0.875C13.0266 0.875 0.875 13.0266 0.875 28C0.875 42.9734 13.0266 55.125 28 55.125C42.9734 55.125 55.125 42.9734 55.125 28C55.125 13.0266 42.9734 0.875 28 0.875ZM39.0141 40.7859C38.5547 40.7859 38.2703 40.6437 37.8438 40.3922C31.0187 36.2797 23.0781 36.1047 15.2359 37.7125C14.8094 37.8219 14.2516 37.9969 13.9344 37.9969C12.8734 37.9969 12.2063 37.1547 12.2063 36.2687C12.2063 35.1422 12.8734 34.6062 13.6937 34.4312C22.6516 32.4516 31.8063 32.6266 39.6156 37.2969C40.2828 37.7234 40.6766 38.1063 40.6766 39.1016C40.6766 40.0969 39.9 40.7859 39.0141 40.7859ZM41.9562 33.6109C41.3875 33.6109 41.0047 33.3594 40.6109 33.1516C33.775 29.1047 23.5812 27.475 14.5141 29.9359C13.9891 30.0781 13.7047 30.2203 13.2125 30.2203C12.0422 30.2203 11.0906 29.2687 11.0906 28.0984C11.0906 26.9281 11.6594 26.1516 12.7859 25.8344C15.8266 24.9812 18.9328 24.3469 23.4828 24.3469C30.5812 24.3469 37.4391 26.1078 42.8422 29.3234C43.7281 29.8484 44.0781 30.5266 44.0781 31.4781C44.0672 32.6594 43.1484 33.6109 41.9562 33.6109ZM45.3469 25.2766C44.7781 25.2766 44.4281 25.1344 43.9359 24.85C36.1484 20.2016 22.225 19.0859 13.2125 21.6016C12.8188 21.7109 12.3266 21.8859 11.8016 21.8859C10.3578 21.8859 9.25313 20.7594 9.25313 19.3047C9.25313 17.8172 10.1719 16.975 11.1562 16.6906C15.0063 15.5641 19.3156 15.0281 24.0078 15.0281C31.9922 15.0281 40.3594 16.6906 46.4734 20.2563C47.3266 20.7484 47.8844 21.4266 47.8844 22.7281C47.8844 24.2156 46.6813 25.2766 45.3469 25.2766Z" fill="#F2F2F2"/>
</g>
<defs>
<clipPath id="clip0_4_37">
<rect width="56" height="56" fill="white"/>
</clipPath>
</defs>
</svg>
